<svg xmlns="http://www.w3.org/2000/svg" fill="none" viewBox="0 0 40 40">
  <path fill="#cda5f8" fill-rule="evenodd" d="M11.536 16.12c2.805 0 5.08 2.342 5.08 5.23 0 2.89-2.275 5.233-5.08 5.233-2.806 0-5.081-2.343-5.081-5.232 0-2.889 2.275-5.232 5.08-5.232zm7.502-8.47 3.232-3.985h-2.128a1.88 1.88 0 0 1-.518-.07 1.098 1.098 0 0 1-.26-.11 1.18 1.18 0 0 1-.228-.162l-.003-.004a1.225 1.225 0 0 1-.319-.446 1.769 1.769 0 0 1-.082-.254 1.473 1.473 0 0 1-.003-.542 1.262 1.262 0 0 1 .208-.503c.05-.074.11-.147.18-.211l.002-.003a1.3 1.3 0 0 1 .492-.285A1.64 1.64 0 0 1 20.145 1h4.612c.234 0 .446.034.632.097a1.364 1.364 0 0 1 .833.81c.071.196.107.413.107.65 0 .188-.02.363-.055.527a1.726 1.726 0 0 1-.199.5c-.032.05-.068.11-.114.174-.039.053-.087.124-.153.204l-.182.241-3.16 3.872H25.3a1.74 1.74 0 0 1 .51.07 1.346 1.346 0 0 1 .485.25l.004.005c.072.06.137.134.195.208.056.073.101.157.137.248l.016.043c.03.074.052.155.065.238.013.084.023.168.023.252a1.578 1.578 0 0 1-.098.533 1.125 1.125 0 0 1-.316.463l-.006.01a1.141 1.14 0 0 1-.228.163 1.138 1.138 0 0 1-.26.11l-.036.01a1.712 1.712 0 0 1-.491.068h-5.267a2.44 2.44 0 0 1-.664-.09h-.003a1.589 1.589 0 0 1-.59-.335 1.569 1.569 0 0 1-.471-.855 1.881 1.88 0 0 1-.033-.332c0-.09.01-.174.023-.268.016-.087.04-.168.068-.252l.004-.01c.01-.033.026-.06.039-.097l.045-.09.052-.09a.99.99 0 0 1 .066-.098l.468-.58ZM1.094 12.644H3.47c.602 0 1.097.522 1.097 1.126V28.44h12.15l3.464-12.548h13.622c3.408 0 6.197 2.876 6.197 6.382v6.385h-.007l.007.123V39h-4.563v-4.796H4.563v4.578H0V13.77c0-.62.491-1.126 1.094-1.126Zm10.572-1.226 2.207-2.72H12.43a1.72 1.72 0 0 1-.186-.01c-.058-.01-.117-.02-.172-.036a1.118 1.118 0 0 1-.18-.073.76.76 0 0 1-.159-.111l-.003-.007a.678.678 0 0 1-.12-.137.888.888 0 0 1-.15-.342 1.221 1.22 0 0 1-.017-.191c0-.064.007-.124.017-.188a.77.77 0 0 1 .052-.174.819.819 0 0 1 .088-.168 1.18 1.18 0 0 1 .12-.144l.003-.003a.808.808 0 0 1 .342-.195.964.964 0 0 1 .176-.04c.062-.01.123-.01.189-.01h3.154c.16 0 .306.02.433.067a.913.913 0 0 1 .345.211.97.97 0 0 1 .23.349c.05.134.076.281.076.446a1.581 1.58 0 0 1-.092.543c-.022.057-.052.11-.08.16l-.082.12-.104.142-.13.16c-.04.05-.085.112-.144.175l-2.015 2.467h1.93c.124 0 .241.017.352.047a.778.778 0 0 1 .179.074.686.686 0 0 1 .156.107h.003a.859.859 0 0 1 .228.308l.01.03c.02.05.033.108.046.165a1.049 1.049 0 0 1 0 .361c-.013.06-.03.12-.052.178a.703.703 0 0 1-.088.17.774.774 0 0 1-.127.148l-.003.007a.719.719 0 0 1-.157.114.785.785 0 0 1-.179.077l-.023.003a1.282 1.282 0 0 1-.162.037c-.056.003-.114.01-.176.01h-3.61c-.081 0-.16-.003-.237-.017a1.14 1.14 0 0 1-.218-.047h-.004a1.245 1.245 0 0 1-.218-.09 1.073 1.073 0 0 1-.185-.138 1.053 1.053 0 0 1-.153-.167.81.81 0 0 1-.108-.205.956.956 0 0 1-.065-.213 1.32 1.32 0 0 1-.02-.228c0-.06.004-.12.017-.181a.817.817 0 0 1 .049-.174c.003-.02.023-.054.03-.074l.032-.06a.62.62 0 0 1 .035-.06c.017-.024.033-.048.05-.068l-.007-.003.319-.402z" clip-rule="evenodd" style="stroke-width:.999952"/>
</svg>
