<svg xmlns="http://www.w3.org/2000/svg" fill="none" viewBox="0 0 40 40">
  <g fill="#cda5f8">
    <path d="m.676 13.768 16.94 14.807c1.058.926 2.12 1.364 3.152 1.3 1.508-.095 2.506-1.24 2.515-1.252L39.297 13.5l.703.57-15.964 15.073c-.164.185-1.344 1.446-3.189 1.567-.094.006-.188.01-.283.01-1.23 0-2.448-.52-3.626-1.55L0 14.36l.676-.594Z"/>
    <path d="M12.45 15.341a3.031 3.031 0 1 1 0-6.061 3.031 3.031 0 0 1 0 6.061z"/>
    <path d="M22.15 26.657c-.004.005-.009.012-.014.015a2.632 2.632 0 0 1-.225.199 260.6 260.6 0 0 0-.475.426c-.98.878-2.23.438-2.81-.39a2.902 2.902 0 0 1-.322-.254 6726.837 6726.837 0 0 1-5.57-5.1 1.595 1.595 0 0 1-.312-.213l-6.864-6.143c-1.393-1.245.658-3.281 2.044-2.043l4.931 4.412c.009-.007.015-.016.023-.024 1.09-1.077 2.743-.978 3.833.02l5.2 4.755 9.878-8.843c1.729-1.55 4.293.997 2.553 2.554z"/>
  </g>
</svg>
